# xmcd
#
# Track frame offsets: 
#        150
#        18352
#        36610
#        53147
#        68327
#        85815
#        101735
#        119107
#        136805
#        152995
#        170292
#        190727
#        217862
#
# Disc length: 3057 seconds
#
# Revision: 0
# Processed by: cddbd v1.5.2PL0 Copyright (c) Steve Scherf et al.
# Submitted via: ExactAudioCopy v0.99pb4
#
DISCID=ae0bef0d
DTITLE=One Bar Town - Steal, Nick And Borrow
DYEAR=2008
DGENRE=Roots Rock
TTITLE0=Tromso Chicks
TTITLE1=My Suicide Note
TTITLE2=I Wish You'd Said
TTITLE3=Del Fuego
TTITLE4=Steal, Nick And Borrow
TTITLE5=The Dream
TTITLE6=Smallish Victories
TTITLE7=The MacDonald Route
TTITLE8=The Breaking Of A French Clown
TTITLE9=Kenny, Claudio and Me
TTITLE10=If I Started Drinking Again
TTITLE11=Why I Don't Drive The Van
TTITLE12=Up Shitcreek Again
EXTD=
EXTT0=
EXTT1=
EXTT2=
EXTT3=
EXTT4=
EXTT5=
EXTT6=
EXTT7=
EXTT8=
EXTT9=
EXTT10=
EXTT11=
EXTT12=
PLAYORDER=
